<mxfile host="app.diagrams.net" modified="2024-02-29T13:28:59.677Z" agent="Mozilla/5.0 (Windows NT 10.0; Win64; x64) AppleWebKit/537.36 (KHTML, like Gecko) Chrome/122.0.0.0 Safari/537.36 Edg/122.0.0.0" etag="EX1Q6ithFKB3fN2KWfUu" version="23.1.8" type="github">
  <diagram name="Page-1" id="dBN8vo7_r_SAYW0YeZtu">
    <mxGraphModel dx="863" dy="486" grid="1" gridSize="12" guides="1" tooltips="1" connect="1" arrows="1" fold="1" page="1" pageScale="1" pageWidth="850" pageHeight="1100" math="0" shadow="0">
      <root>
        <mxCell id="0" />
        <mxCell id="1" parent="0" />
        <mxCell id="1qCErgAK-sc5Ld1Q3oRK-1" value="" style="ellipse;whiteSpace=wrap;html=1;fillColor=#000000;" parent="1" vertex="1">
          <mxGeometry y="624" width="24" height="24" as="geometry" />
        </mxCell>
        <mxCell id="1qCErgAK-sc5Ld1Q3oRK-2" value="" style="endArrow=classic;html=1;rounded=0;exitX=1;exitY=0.5;exitDx=0;exitDy=0;" parent="1" source="1qCErgAK-sc5Ld1Q3oRK-1" edge="1">
          <mxGeometry width="50" height="50" relative="1" as="geometry">
            <mxPoint x="144" y="626" as="sourcePoint" />
            <mxPoint x="72" y="636" as="targetPoint" />
          </mxGeometry>
        </mxCell>
        <mxCell id="1qCErgAK-sc5Ld1Q3oRK-3" value="" style="rhombus;whiteSpace=wrap;html=1;" parent="1" vertex="1">
          <mxGeometry x="72" y="630" width="20" height="12" as="geometry" />
        </mxCell>
        <mxCell id="1qCErgAK-sc5Ld1Q3oRK-5" value="Ввод нового пароля" style="rounded=0;whiteSpace=wrap;html=1;" parent="1" vertex="1">
          <mxGeometry x="34" y="720" width="96" height="32" as="geometry" />
        </mxCell>
        <mxCell id="1qCErgAK-sc5Ld1Q3oRK-6" value="" style="endArrow=classic;html=1;rounded=0;exitX=1;exitY=0.5;exitDx=0;exitDy=0;entryX=0;entryY=0.5;entryDx=0;entryDy=0;" parent="1" source="1qCErgAK-sc5Ld1Q3oRK-3" target="1qCErgAK-sc5Ld1Q3oRK-8" edge="1">
          <mxGeometry width="50" height="50" relative="1" as="geometry">
            <mxPoint x="144" y="626" as="sourcePoint" />
            <mxPoint x="144" y="636" as="targetPoint" />
          </mxGeometry>
        </mxCell>
        <mxCell id="1qCErgAK-sc5Ld1Q3oRK-8" value="Заглавная страница сайта" style="rounded=0;whiteSpace=wrap;html=1;fillColor=#e1d5e7;strokeColor=#9673a6;" parent="1" vertex="1">
          <mxGeometry x="144" y="620" width="96" height="32" as="geometry" />
        </mxCell>
        <mxCell id="1qCErgAK-sc5Ld1Q3oRK-10" value="" style="endArrow=classic;html=1;rounded=0;exitX=0.5;exitY=1;exitDx=0;exitDy=0;entryX=0.5;entryY=0;entryDx=0;entryDy=0;" parent="1" source="1qCErgAK-sc5Ld1Q3oRK-3" target="1qCErgAK-sc5Ld1Q3oRK-5" edge="1">
          <mxGeometry width="50" height="50" relative="1" as="geometry">
            <mxPoint x="144" y="626" as="sourcePoint" />
            <mxPoint x="194" y="576" as="targetPoint" />
          </mxGeometry>
        </mxCell>
        <mxCell id="1qCErgAK-sc5Ld1Q3oRK-11" value="&lt;font style=&quot;font-size: 7px;&quot;&gt;[Вход по ссылке на восстановление с валидным токеном]&lt;/font&gt;" style="text;html=1;align=center;verticalAlign=middle;whiteSpace=wrap;rounded=0;" parent="1" vertex="1">
          <mxGeometry x="18" y="672" width="128" height="22" as="geometry" />
        </mxCell>
        <mxCell id="1qCErgAK-sc5Ld1Q3oRK-12" value="&lt;font style=&quot;font-size: 7px;&quot;&gt;[иначе]&lt;/font&gt;" style="text;html=1;align=center;verticalAlign=middle;whiteSpace=wrap;rounded=0;" parent="1" vertex="1">
          <mxGeometry x="92" y="624" width="42" height="10" as="geometry" />
        </mxCell>
        <mxCell id="1qCErgAK-sc5Ld1Q3oRK-13" value="&lt;font style=&quot;font-size: 10px;&quot;&gt;Заполнение формы регистрации&lt;/font&gt;" style="rounded=0;whiteSpace=wrap;html=1;fillColor=#e1d5e7;strokeColor=#9673a6;" parent="1" vertex="1">
          <mxGeometry x="144" y="534" width="96" height="32" as="geometry" />
        </mxCell>
        <mxCell id="1qCErgAK-sc5Ld1Q3oRK-15" value="&lt;font style=&quot;font-size: 7px;&quot;&gt;[выбрана регистрация]&lt;/font&gt;" style="text;html=1;align=center;verticalAlign=middle;whiteSpace=wrap;rounded=0;" parent="1" vertex="1">
          <mxGeometry x="146" y="582" width="106" height="10" as="geometry" />
        </mxCell>
        <mxCell id="aCRC95sL4vHq5HqHIcCo-1" value="" style="endArrow=classic;html=1;rounded=0;exitX=0.462;exitY=0.019;exitDx=0;exitDy=0;entryX=1;entryY=0.372;entryDx=0;entryDy=0;entryPerimeter=0;exitPerimeter=0;" parent="1" source="1qCErgAK-sc5Ld1Q3oRK-13" target="1qCErgAK-sc5Ld1Q3oRK-13" edge="1">
          <mxGeometry width="50" height="50" relative="1" as="geometry">
            <mxPoint x="216" y="578" as="sourcePoint" />
            <mxPoint x="243" y="546" as="targetPoint" />
            <Array as="points">
              <mxPoint x="188" y="528" />
              <mxPoint x="288" y="528" />
              <mxPoint x="288" y="546" />
            </Array>
          </mxGeometry>
        </mxCell>
        <mxCell id="aCRC95sL4vHq5HqHIcCo-2" value="&lt;font style=&quot;font-size: 7px;&quot;&gt;[валидация (любая)/проверка по БД не прошла]&lt;/font&gt;" style="text;html=1;align=center;verticalAlign=middle;whiteSpace=wrap;rounded=0;" parent="1" vertex="1">
          <mxGeometry x="240" y="534" width="108" height="12" as="geometry" />
        </mxCell>
        <mxCell id="aCRC95sL4vHq5HqHIcCo-3" value="&lt;font style=&quot;font-size: 10px;&quot;&gt;Личный кабинет&lt;/font&gt;" style="rounded=0;whiteSpace=wrap;html=1;" parent="1" vertex="1">
          <mxGeometry x="425" y="571" width="96" height="32" as="geometry" />
        </mxCell>
        <mxCell id="aCRC95sL4vHq5HqHIcCo-4" value="" style="endArrow=classic;html=1;rounded=0;exitX=0.47;exitY=0.008;exitDx=0;exitDy=0;exitPerimeter=0;entryX=0.549;entryY=0.008;entryDx=0;entryDy=0;entryPerimeter=0;" parent="1" source="1qCErgAK-sc5Ld1Q3oRK-13" target="aCRC95sL4vHq5HqHIcCo-3" edge="1">
          <mxGeometry width="50" height="50" relative="1" as="geometry">
            <mxPoint x="216" y="578" as="sourcePoint" />
            <mxPoint x="266" y="528" as="targetPoint" />
            <Array as="points">
              <mxPoint x="189" y="468" />
              <mxPoint x="478" y="468" />
            </Array>
          </mxGeometry>
        </mxCell>
        <mxCell id="aCRC95sL4vHq5HqHIcCo-5" value="&lt;font style=&quot;font-size: 7px;&quot;&gt;[всё прошло]&lt;/font&gt;" style="text;html=1;align=center;verticalAlign=middle;whiteSpace=wrap;rounded=0;" parent="1" vertex="1">
          <mxGeometry x="216" y="456" width="96" height="12" as="geometry" />
        </mxCell>
        <mxCell id="aCRC95sL4vHq5HqHIcCo-6" value="&lt;span style=&quot;font-size: 10px;&quot;&gt;Заполнение формы входа&lt;/span&gt;" style="rounded=0;whiteSpace=wrap;html=1;fillColor=#e1d5e7;strokeColor=#9673a6;" parent="1" vertex="1">
          <mxGeometry x="288" y="620" width="96" height="32" as="geometry" />
        </mxCell>
        <mxCell id="aCRC95sL4vHq5HqHIcCo-8" value="&lt;font style=&quot;font-size: 7px;&quot;&gt;[выбран вход]&lt;/font&gt;" style="text;html=1;align=center;verticalAlign=middle;whiteSpace=wrap;rounded=0;" parent="1" vertex="1">
          <mxGeometry x="211" y="620" width="106" height="10" as="geometry" />
        </mxCell>
        <mxCell id="aCRC95sL4vHq5HqHIcCo-12" value="&lt;font style=&quot;font-size: 7px;&quot;&gt;[Данные верны]&lt;/font&gt;" style="text;html=1;align=center;verticalAlign=middle;whiteSpace=wrap;rounded=0;" parent="1" vertex="1">
          <mxGeometry x="372" y="620" width="106" height="10" as="geometry" />
        </mxCell>
        <mxCell id="aCRC95sL4vHq5HqHIcCo-13" value="" style="endArrow=classic;html=1;rounded=0;exitX=1;exitY=0.5;exitDx=0;exitDy=0;entryX=0.5;entryY=1;entryDx=0;entryDy=0;" parent="1" source="aCRC95sL4vHq5HqHIcCo-6" target="aCRC95sL4vHq5HqHIcCo-3" edge="1">
          <mxGeometry width="50" height="50" relative="1" as="geometry">
            <mxPoint x="300" y="650" as="sourcePoint" />
            <mxPoint x="350" y="600" as="targetPoint" />
          </mxGeometry>
        </mxCell>
        <mxCell id="aCRC95sL4vHq5HqHIcCo-20" value="&lt;span style=&quot;font-size: 10px;&quot;&gt;Уведомление об ошибке&lt;/span&gt;" style="rounded=0;whiteSpace=wrap;html=1;" parent="1" vertex="1">
          <mxGeometry x="288" y="720" width="96" height="32" as="geometry" />
        </mxCell>
        <mxCell id="aCRC95sL4vHq5HqHIcCo-22" value="" style="endArrow=classic;html=1;rounded=0;exitX=0.5;exitY=1;exitDx=0;exitDy=0;entryX=0.5;entryY=0;entryDx=0;entryDy=0;" parent="1" source="aCRC95sL4vHq5HqHIcCo-6" target="aCRC95sL4vHq5HqHIcCo-20" edge="1">
          <mxGeometry width="50" height="50" relative="1" as="geometry">
            <mxPoint x="300" y="710" as="sourcePoint" />
            <mxPoint x="350" y="660" as="targetPoint" />
          </mxGeometry>
        </mxCell>
        <mxCell id="aCRC95sL4vHq5HqHIcCo-23" value="" style="endArrow=classic;html=1;rounded=0;exitX=1;exitY=0.5;exitDx=0;exitDy=0;entryX=0;entryY=0.5;entryDx=0;entryDy=0;" parent="1" source="1qCErgAK-sc5Ld1Q3oRK-8" target="aCRC95sL4vHq5HqHIcCo-6" edge="1">
          <mxGeometry width="50" height="50" relative="1" as="geometry">
            <mxPoint x="300" y="710" as="sourcePoint" />
            <mxPoint x="350" y="660" as="targetPoint" />
          </mxGeometry>
        </mxCell>
        <mxCell id="aCRC95sL4vHq5HqHIcCo-24" value="" style="endArrow=classic;html=1;rounded=0;exitX=0.5;exitY=0;exitDx=0;exitDy=0;entryX=0.5;entryY=1;entryDx=0;entryDy=0;" parent="1" source="1qCErgAK-sc5Ld1Q3oRK-8" target="1qCErgAK-sc5Ld1Q3oRK-13" edge="1">
          <mxGeometry width="50" height="50" relative="1" as="geometry">
            <mxPoint x="300" y="710" as="sourcePoint" />
            <mxPoint x="350" y="660" as="targetPoint" />
          </mxGeometry>
        </mxCell>
        <mxCell id="aCRC95sL4vHq5HqHIcCo-25" value="" style="endArrow=classic;html=1;rounded=0;exitX=0.75;exitY=0;exitDx=0;exitDy=0;entryX=0.75;entryY=1;entryDx=0;entryDy=0;" parent="1" source="aCRC95sL4vHq5HqHIcCo-20" target="aCRC95sL4vHq5HqHIcCo-6" edge="1">
          <mxGeometry width="50" height="50" relative="1" as="geometry">
            <mxPoint x="425" y="708" as="sourcePoint" />
            <mxPoint x="475" y="658" as="targetPoint" />
          </mxGeometry>
        </mxCell>
        <mxCell id="aCRC95sL4vHq5HqHIcCo-26" value="&lt;font style=&quot;font-size: 7px;&quot;&gt;[Данные неверны]&lt;/font&gt;" style="text;html=1;align=center;verticalAlign=middle;whiteSpace=wrap;rounded=0;" parent="1" vertex="1">
          <mxGeometry x="278" y="694" width="70" height="10" as="geometry" />
        </mxCell>
        <mxCell id="aCRC95sL4vHq5HqHIcCo-27" value="&lt;font style=&quot;font-size: 7px;&quot;&gt;[Повторная попытка регистрации]&lt;/font&gt;" style="text;html=1;align=center;verticalAlign=middle;whiteSpace=wrap;rounded=0;" parent="1" vertex="1">
          <mxGeometry x="335" y="674" width="84" height="10" as="geometry" />
        </mxCell>
        <mxCell id="aCRC95sL4vHq5HqHIcCo-29" value="" style="endArrow=classic;html=1;rounded=0;exitX=1;exitY=0.5;exitDx=0;exitDy=0;entryX=0;entryY=0.5;entryDx=0;entryDy=0;" parent="1" source="aCRC95sL4vHq5HqHIcCo-20" target="aCRC95sL4vHq5HqHIcCo-31" edge="1">
          <mxGeometry width="50" height="50" relative="1" as="geometry">
            <mxPoint x="165.22799999999998" y="791.212" as="sourcePoint" />
            <mxPoint x="218.78" y="680.78" as="targetPoint" />
          </mxGeometry>
        </mxCell>
        <mxCell id="aCRC95sL4vHq5HqHIcCo-30" value="&lt;font style=&quot;font-size: 7px;&quot;&gt;[Выбрано восстановление пароля]&lt;/font&gt;" style="text;html=1;align=center;verticalAlign=middle;whiteSpace=wrap;rounded=0;" parent="1" vertex="1">
          <mxGeometry x="384" y="736" width="96" as="geometry" />
        </mxCell>
        <mxCell id="aCRC95sL4vHq5HqHIcCo-31" value="&lt;span style=&quot;font-size: 10px;&quot;&gt;Ввод email-а&lt;/span&gt;" style="rounded=0;whiteSpace=wrap;html=1;" parent="1" vertex="1">
          <mxGeometry x="478" y="720" width="96" height="32" as="geometry" />
        </mxCell>
        <mxCell id="aCRC95sL4vHq5HqHIcCo-32" value="&lt;span style=&quot;font-size: 10px;&quot;&gt;&quot;Проверьте email&quot;&lt;/span&gt;" style="rounded=0;whiteSpace=wrap;html=1;" parent="1" vertex="1">
          <mxGeometry x="478" y="662" width="96" height="32" as="geometry" />
        </mxCell>
        <mxCell id="aCRC95sL4vHq5HqHIcCo-34" value="" style="endArrow=classic;html=1;rounded=0;exitX=0.5;exitY=0;exitDx=0;exitDy=0;entryX=0.5;entryY=1;entryDx=0;entryDy=0;" parent="1" source="aCRC95sL4vHq5HqHIcCo-31" target="aCRC95sL4vHq5HqHIcCo-32" edge="1">
          <mxGeometry width="50" height="50" relative="1" as="geometry">
            <mxPoint x="372" y="732" as="sourcePoint" />
            <mxPoint x="372" y="664" as="targetPoint" />
          </mxGeometry>
        </mxCell>
        <mxCell id="aCRC95sL4vHq5HqHIcCo-35" value="&lt;font style=&quot;font-size: 7px;&quot;&gt;[Почта существует]&lt;/font&gt;" style="text;html=1;align=center;verticalAlign=middle;whiteSpace=wrap;rounded=0;" parent="1" vertex="1">
          <mxGeometry x="504" y="704" width="96" height="8" as="geometry" />
        </mxCell>
        <mxCell id="aCRC95sL4vHq5HqHIcCo-36" value="&lt;font style=&quot;font-size: 7px;&quot;&gt;[Почты не существует]&lt;/font&gt;" style="text;html=1;align=center;verticalAlign=middle;whiteSpace=wrap;rounded=0;" parent="1" vertex="1">
          <mxGeometry x="588" y="728" width="96" height="8" as="geometry" />
        </mxCell>
        <mxCell id="aCRC95sL4vHq5HqHIcCo-37" value="" style="endArrow=classic;html=1;rounded=0;exitX=0.5;exitY=0;exitDx=0;exitDy=0;entryX=0.824;entryY=-0.004;entryDx=0;entryDy=0;entryPerimeter=0;" parent="1" source="1qCErgAK-sc5Ld1Q3oRK-3" target="aCRC95sL4vHq5HqHIcCo-3" edge="1">
          <mxGeometry width="50" height="50" relative="1" as="geometry">
            <mxPoint x="204" y="674" as="sourcePoint" />
            <mxPoint x="254" y="624" as="targetPoint" />
            <Array as="points">
              <mxPoint x="84" y="444" />
              <mxPoint x="504" y="444" />
            </Array>
          </mxGeometry>
        </mxCell>
        <mxCell id="aCRC95sL4vHq5HqHIcCo-38" value="&lt;font style=&quot;font-size: 7px;&quot;&gt;[пользователен авторизирован]&lt;/font&gt;" style="text;html=1;align=center;verticalAlign=middle;whiteSpace=wrap;rounded=0;" parent="1" vertex="1">
          <mxGeometry x="216" y="432" width="108" height="12" as="geometry" />
        </mxCell>
        <mxCell id="aCRC95sL4vHq5HqHIcCo-39" value="" style="endArrow=classic;html=1;rounded=0;exitX=1;exitY=0.25;exitDx=0;exitDy=0;entryX=1;entryY=0.75;entryDx=0;entryDy=0;" parent="1" source="aCRC95sL4vHq5HqHIcCo-31" target="aCRC95sL4vHq5HqHIcCo-31" edge="1">
          <mxGeometry width="50" height="50" relative="1" as="geometry">
            <mxPoint x="456" y="674" as="sourcePoint" />
            <mxPoint x="588" y="756" as="targetPoint" />
            <Array as="points">
              <mxPoint x="612" y="728" />
              <mxPoint x="612" y="744" />
            </Array>
          </mxGeometry>
        </mxCell>
        <mxCell id="aCRC95sL4vHq5HqHIcCo-40" value="" style="endArrow=classic;html=1;rounded=0;exitX=0;exitY=0.5;exitDx=0;exitDy=0;entryX=0.5;entryY=1;entryDx=0;entryDy=0;" parent="1" source="aCRC95sL4vHq5HqHIcCo-32" target="1qCErgAK-sc5Ld1Q3oRK-8" edge="1">
          <mxGeometry width="50" height="50" relative="1" as="geometry">
            <mxPoint x="468" y="674" as="sourcePoint" />
            <mxPoint x="180" y="684" as="targetPoint" />
            <Array as="points">
              <mxPoint x="192" y="678" />
            </Array>
          </mxGeometry>
        </mxCell>
        <mxCell id="aCRC95sL4vHq5HqHIcCo-41" value="&lt;font style=&quot;font-size: 7px;&quot;&gt;[выбрано &quot;На главную&quot;]&lt;/font&gt;" style="text;html=1;align=center;verticalAlign=middle;whiteSpace=wrap;rounded=0;" parent="1" vertex="1">
          <mxGeometry x="192" y="664" width="106" height="10" as="geometry" />
        </mxCell>
        <mxCell id="aCRC95sL4vHq5HqHIcCo-43" value="&lt;span style=&quot;font-size: 10px;&quot;&gt;&quot;Пароль изменён&quot;&lt;/span&gt;" style="rounded=0;whiteSpace=wrap;html=1;" parent="1" vertex="1">
          <mxGeometry x="202" y="828" width="96" height="32" as="geometry" />
        </mxCell>
        <mxCell id="aCRC95sL4vHq5HqHIcCo-44" value="" style="endArrow=classic;html=1;rounded=0;exitX=0.5;exitY=1;exitDx=0;exitDy=0;entryX=0;entryY=0.5;entryDx=0;entryDy=0;" parent="1" source="1qCErgAK-sc5Ld1Q3oRK-5" target="aCRC95sL4vHq5HqHIcCo-43" edge="1">
          <mxGeometry width="50" height="50" relative="1" as="geometry">
            <mxPoint x="324" y="794" as="sourcePoint" />
            <mxPoint x="374" y="744" as="targetPoint" />
            <Array as="points">
              <mxPoint x="82" y="844" />
            </Array>
          </mxGeometry>
        </mxCell>
        <mxCell id="aCRC95sL4vHq5HqHIcCo-46" value="&lt;font style=&quot;font-size: 7px;&quot;&gt;[Пароль хороший/не соответствует старому]&lt;/font&gt;" style="text;html=1;align=center;verticalAlign=middle;whiteSpace=wrap;rounded=0;" parent="1" vertex="1">
          <mxGeometry x="72" y="850" width="120" height="10" as="geometry" />
        </mxCell>
        <mxCell id="aCRC95sL4vHq5HqHIcCo-47" value="" style="endArrow=classic;html=1;rounded=0;exitX=1;exitY=0.75;exitDx=0;exitDy=0;entryX=1;entryY=0.25;entryDx=0;entryDy=0;" parent="1" source="1qCErgAK-sc5Ld1Q3oRK-5" target="1qCErgAK-sc5Ld1Q3oRK-5" edge="1">
          <mxGeometry width="50" height="50" relative="1" as="geometry">
            <mxPoint x="324" y="794" as="sourcePoint" />
            <mxPoint x="204" y="744" as="targetPoint" />
            <Array as="points">
              <mxPoint x="180" y="744" />
              <mxPoint x="180" y="728" />
            </Array>
          </mxGeometry>
        </mxCell>
        <mxCell id="aCRC95sL4vHq5HqHIcCo-49" value="&lt;font style=&quot;font-size: 7px;&quot;&gt;[иначе]&lt;/font&gt;" style="text;html=1;align=center;verticalAlign=middle;whiteSpace=wrap;rounded=0;" parent="1" vertex="1">
          <mxGeometry x="139" y="724" width="72" height="16" as="geometry" />
        </mxCell>
        <mxCell id="aCRC95sL4vHq5HqHIcCo-50" value="" style="rounded=0;whiteSpace=wrap;html=1;fillColor=#e1d5e7;strokeColor=#9673a6;" parent="1" vertex="1">
          <mxGeometry x="24" y="336" width="60" height="12" as="geometry" />
        </mxCell>
        <mxCell id="aCRC95sL4vHq5HqHIcCo-51" value="- страница может быть посещена с любой (почти) страницы сайта" style="text;html=1;align=center;verticalAlign=middle;resizable=0;points=[];autosize=1;strokeColor=none;fillColor=none;" parent="1" vertex="1">
          <mxGeometry x="54" y="330" width="396" height="24" as="geometry" />
        </mxCell>
        <mxCell id="aCRC95sL4vHq5HqHIcCo-52" value="" style="endArrow=classic;html=1;rounded=0;exitX=0.458;exitY=0;exitDx=0;exitDy=0;exitPerimeter=0;entryX=0;entryY=1;entryDx=0;entryDy=0;" parent="1" source="aCRC95sL4vHq5HqHIcCo-43" target="aCRC95sL4vHq5HqHIcCo-41" edge="1">
          <mxGeometry width="50" height="50" relative="1" as="geometry">
            <mxPoint x="264" y="794" as="sourcePoint" />
            <mxPoint x="192" y="684" as="targetPoint" />
          </mxGeometry>
        </mxCell>
        <mxCell id="aCRC95sL4vHq5HqHIcCo-53" value="&lt;font style=&quot;font-size: 7px;&quot;&gt;[выбрано &quot;На главную&quot;]&lt;/font&gt;" style="text;html=1;align=center;verticalAlign=middle;whiteSpace=wrap;rounded=0;" parent="1" vertex="1">
          <mxGeometry x="199" y="804" width="106" height="10" as="geometry" />
        </mxCell>
        <mxCell id="aCRC95sL4vHq5HqHIcCo-55" value="&lt;font style=&quot;font-size: 10px;&quot;&gt;Выход из системы&lt;/font&gt;" style="rounded=0;whiteSpace=wrap;html=1;" parent="1" vertex="1">
          <mxGeometry x="612" y="571" width="96" height="32" as="geometry" />
        </mxCell>
        <mxCell id="aCRC95sL4vHq5HqHIcCo-57" value="" style="endArrow=classic;html=1;rounded=0;exitX=1;exitY=0.5;exitDx=0;exitDy=0;entryX=0;entryY=0.5;entryDx=0;entryDy=0;" parent="1" source="aCRC95sL4vHq5HqHIcCo-3" target="aCRC95sL4vHq5HqHIcCo-55" edge="1">
          <mxGeometry width="50" height="50" relative="1" as="geometry">
            <mxPoint x="564" y="642" as="sourcePoint" />
            <mxPoint x="614" y="592" as="targetPoint" />
          </mxGeometry>
        </mxCell>
        <mxCell id="aCRC95sL4vHq5HqHIcCo-58" value="&lt;font style=&quot;font-size: 7px;&quot;&gt;[Выбран выход из системы]&lt;/font&gt;" style="text;html=1;align=center;verticalAlign=middle;resizable=0;points=[];autosize=1;strokeColor=none;fillColor=none;" parent="1" vertex="1">
          <mxGeometry x="504" y="592" width="120" height="24" as="geometry" />
        </mxCell>
      </root>
    </mxGraphModel>
  </diagram>
</mxfile>
